<?xml version="1.0" standalone="no"?>
<!DOCTYPE svg PUBLIC "-//W3C//DTD SVG 20010904//EN"
 "http://www.w3.org/TR/2001/REC-SVG-20010904/DTD/svg10.dtd">
<svg version="1.0" xmlns="http://www.w3.org/2000/svg"
 width="260.000000pt" height="260.000000pt" viewBox="0 0 260.000000 260.000000"
 preserveAspectRatio="xMidYMid meet">
<metadata>
Created by potrace 1.11, written by Peter Selinger 2001-2013
</metadata>
<g transform="translate(0.000000,260.000000) scale(0.100000,-0.100000)"
fill="#000000" stroke="none">
<path d="M0 1965 l0 -635 598 0 597 0 -75 48 c-183 118 -254 253 -266 502 -18
370 152 590 456 590 131 0 246 -46 326 -132 84 -89 121 -204 131 -400 l6 -128
-50 0 -50 0 -6 128 c-7 145 -29 231 -79 306 -55 84 -163 136 -283 136 -227 0
-355 -168 -355 -465 1 -254 92 -383 391 -548 l66 -37 596 0 597 0 0 635 0 635
-1300 0 -1300 0 0 -635z"/>
<path d="M0 630 l0 -630 1300 0 1300 0 0 630 0 630 -534 0 -534 0 64 -64 c70
-70 120 -161 151 -276 25 -91 24 -338 0 -430 -65 -243 -205 -350 -456 -350
-213 1 -352 80 -410 235 -25 66 -41 194 -41 328 l0 97 50 0 50 0 0 -112 c0
-151 14 -230 53 -307 57 -112 159 -158 332 -149 236 13 344 168 345 493 0 183
-46 301 -156 405 -35 32 -92 75 -127 94 l-64 36 -661 0 -662 0 0 -630z"/>
</g>
</svg>
